<svg id="visual" viewBox="1 0 960 540" width="960" height="540" xmlns="http://www.w3.org/2000/svg" xmlns:xlink="http://www.w3.org/1999/xlink" version="1.1"><path d="M0 349L26.7 366.5C53.3 384 106.7 419 160 425.3C213.3 431.7 266.7 409.3 320 393C373.3 376.7 426.7 366.3 480 370.3C533.3 374.3 586.7 392.7 640 401.7C693.3 410.7 746.7 410.3 800 400.5C853.3 390.7 906.7 371.3 933.3 361.7L960 352L960 541L933.3 541C906.7 541 853.3 541 800 541C746.7 541 693.3 541 640 541C586.7 541 533.3 541 480 541C426.7 541 373.3 541 320 541C266.7 541 213.3 541 160 541C106.7 541 53.3 541 26.7 541L0 541Z" fill="#0066FF" stroke-linecap="round" stroke-linejoin="miter"></path></svg>